<svg width="12" height="13" viewBox="0 0 12 13" fill="none" xmlns="http://www.w3.org/2000/svg">
<g clip-path="url(#clip0_4205_14)">
<path d="M11 8.19006C10.8343 8.19034 10.6755 8.25891 10.5584 8.38075C10.4412 8.50259 10.3753 8.66776 10.375 8.84006V10.4001C10.3747 10.5034 10.3351 10.6025 10.2649 10.6755C10.1946 10.7486 10.0994 10.7898 10 10.7901H2C1.90062 10.7898 1.8054 10.7486 1.73513 10.6755C1.66486 10.6025 1.62526 10.5034 1.625 10.4001V8.84006C1.625 8.66767 1.55915 8.50234 1.44194 8.38044C1.32473 8.25854 1.16576 8.19006 1 8.19006C0.83424 8.19006 0.675269 8.25854 0.558058 8.38044C0.440848 8.50234 0.375 8.66767 0.375 8.84006V10.4001C0.375529 10.8481 0.546904 11.2776 0.851536 11.5945C1.15617 11.9113 1.56919 12.0895 2 12.0901H10C10.4308 12.0895 10.8438 11.9113 11.1485 11.5945C11.4531 11.2776 11.6245 10.8481 11.625 10.4001V8.84006C11.6247 8.66776 11.5588 8.50259 11.4416 8.38075C11.3245 8.25891 11.1657 8.19034 11 8.19006Z" fill="#369A47"/>
<path d="M6.00003 0.390015C5.83435 0.39029 5.67554 0.45886 5.55838 0.580699C5.44123 0.702538 5.3753 0.867708 5.37503 1.04001V6.93214L3.40003 5.22082C3.27266 5.11067 3.10847 5.05756 2.94349 5.07316C2.77851 5.08876 2.62622 5.17178 2.52003 5.30402C2.41412 5.43649 2.36306 5.60724 2.37806 5.77882C2.39306 5.9504 2.47289 6.10878 2.60003 6.21921L5.60003 8.81921C5.63153 8.84244 5.665 8.86264 5.70003 8.87954C5.72288 8.89547 5.74677 8.90971 5.77153 8.92218C5.84363 8.95374 5.92106 8.97 5.99928 8.97C6.07751 8.97 6.15494 8.95374 6.22703 8.92218C6.25118 8.90966 6.27456 8.89559 6.29703 8.88006C6.33205 8.86313 6.36552 8.84294 6.39703 8.81974L9.39703 6.21974C9.49564 6.13443 9.56663 6.01964 9.60036 5.89094C9.63409 5.76224 9.62893 5.62587 9.58558 5.50032C9.54223 5.37478 9.46279 5.26614 9.35804 5.18916C9.25328 5.11218 9.1283 5.07059 9.00003 5.07001C8.85388 5.0703 8.71241 5.12364 8.60003 5.22082L6.62503 6.93214V1.04001C6.62477 0.867708 6.55884 0.702538 6.44168 0.580699C6.32453 0.45886 6.16571 0.39029 6.00003 0.390015Z" fill="#369A47"/>
</g>
<defs>
<clipPath id="clip0_4205_14">
<rect width="12" height="13" fill="white"/>
</clipPath>
</defs>
</svg>
